<svg xmlns="http://www.w3.org/2000/svg" width="62" height="55" viewBox="0 0 62 55"><g transform="translate(-169 -720)"><g transform="translate(169 720)" fill="none" stroke="#707070" stroke-width="1" stroke-dasharray="7" opacity="0.61"><rect width="62" height="55" rx="6" stroke="none"/><rect x="0.5" y="0.5" width="61" height="54" rx="5.5" fill="none"/></g><g transform="translate(140 371.846)"><path d="M28.829,41.59A3.9,3.9,0,0,0,26,40.446H22.5l-.8-2.075A3.136,3.136,0,0,0,19,36.54H11a2.827,2.827,0,0,0-1.617.542A2.849,2.849,0,0,0,8.3,38.371l-.8,2.075H4A3.9,3.9,0,0,0,1.172,41.59,3.719,3.719,0,0,0,0,44.351v13.67a3.718,3.718,0,0,0,1.172,2.761A3.9,3.9,0,0,0,4,61.926H26a3.9,3.9,0,0,0,2.828-1.144A3.718,3.718,0,0,0,30,58.021V44.351A3.718,3.718,0,0,0,28.829,41.59ZM19.945,56.015A6.824,6.824,0,0,1,15,58.021a6.824,6.824,0,0,1-4.945-2.006,6.7,6.7,0,0,1,0-9.657A6.824,6.824,0,0,1,15,44.352a6.824,6.824,0,0,1,4.945,2.006,6.7,6.7,0,0,1,0,9.657Z" transform="translate(45 326.614)" fill="#a7a7a7"/><path d="M197.176,228.4a5.33,5.33,0,1,0,3.759,1.562A5.123,5.123,0,0,0,197.176,228.4Z" transform="translate(-137.291 143.904)" fill="#a7a7a7"/></g></g></svg>
