<svg xmlns="http://www.w3.org/2000/svg" width="44.024" height="45.332" viewBox="0 0 44.024 45.332"><g transform="translate(-7.387)"><path d="M227.7,0a2.927,2.927,0,0,0-2.924,2.923V22.133a.666.666,0,0,0,.666.666h4.515a.666.666,0,0,0,.666-.666V2.923A2.927,2.927,0,0,0,227.7,0Z" transform="translate(-198.14)" fill="#957856"/><path d="M240.548,0a2.907,2.907,0,0,0-1.675.53,2.922,2.922,0,0,1,1.248,2.394V22.133a.666.666,0,0,1-.666.666h3.351a.666.666,0,0,0,.666-.666V2.923A2.927,2.927,0,0,0,240.548,0Z" transform="translate(-210.99)" fill="#806749"/><g transform="translate(8.985 15.506)"><path d="M42.291,326.584a2.7,2.7,0,1,0,2.7,2.7A2.7,2.7,0,0,0,42.291,326.584Z" transform="translate(-38.338 -313.174)" fill="#c9983d"/><path d="M34.532,178.269a3.142,3.142,0,0,0-5.719-1.8q-.118-.009-.236-.009a3.142,3.142,0,1,0,.053,6.284,3.143,3.143,0,0,0,5.449-2.851A3.107,3.107,0,0,0,34.532,178.269Z" transform="translate(-25.434 -175.127)" fill="#c9983d"/></g><path d="M74.931,178.269a3.136,3.136,0,0,0-4.832-2.644,3.142,3.142,0,0,1,1.448,2.644,3.107,3.107,0,0,1-.453,1.626,3.143,3.143,0,0,1-1.336,3.5,3.144,3.144,0,0,0,4.72-3.5A3.107,3.107,0,0,0,74.931,178.269Z" transform="translate(-56.848 -159.621)" fill="#ab732d"/><g transform="translate(36.158 9.6)"><path d="M335.036,108.43a2.7,2.7,0,1,0,2.7,2.7A2.7,2.7,0,0,0,335.036,108.43Z" transform="translate(-332.336 -108.43)" fill="#c9983d"/><path d="M407.682,184.136a3.148,3.148,0,0,1-1.707-1.825,3.142,3.142,0,0,0-5.007,3.3q-.082.086-.156.178a3.143,3.143,0,0,0,2.43,5.128,3.2,3.2,0,0,0,.325-.017,3.122,3.122,0,0,0,2.117-1.141l.033-.041a3.143,3.143,0,0,0,1.966-5.579Z" transform="translate(-394.106 -175.127)" fill="#c9983d"/></g><path d="M423.035,184.14a3.148,3.148,0,0,1-1.707-1.825,3.147,3.147,0,0,0-3.635-.237,3.147,3.147,0,0,1,.335.237,3.148,3.148,0,0,0,1.708,1.825,3.143,3.143,0,0,1-1.966,5.579l-.033.041a3.146,3.146,0,0,1-.785.69,3.111,3.111,0,0,0,1.644.468,3.2,3.2,0,0,0,.325-.017,3.122,3.122,0,0,0,2.117-1.141l.033-.041a3.143,3.143,0,0,0,1.966-5.579Z" transform="translate(-373.301 -165.531)" fill="#ab732d"/><path d="M263.692,396.536a4.5,4.5,0,0,0-2.98-1.328,7.008,7.008,0,0,0-1.029-2.135,6.579,6.579,0,0,0-5.659-2.668,8.676,8.676,0,0,0-1.542.135.666.666,0,0,0-.508.43,14.442,14.442,0,0,1-5.486,7.5,8.956,8.956,0,0,1-3.208,1.362,5.625,5.625,0,0,1-.558-.129.666.666,0,0,0-.844.606c0,.059-.006.118-.007.178a.666.666,0,0,0,.665.683h21.931a.666.666,0,0,0,.665-.642A5.982,5.982,0,0,0,263.692,396.536Z" transform="translate(-213.722 -355.839)" fill="#c9983d"/><path d="M371.812,396.536a4.5,4.5,0,0,0-2.98-1.328,7.007,7.007,0,0,0-1.029-2.135,6.579,6.579,0,0,0-5.659-2.668,8.676,8.676,0,0,0-1.542.135.665.665,0,0,0-.108.03,6.265,6.265,0,0,1,3.947,2.5,7.008,7.008,0,0,1,1.029,2.135,4.5,4.5,0,0,1,2.98,1.328,5.981,5.981,0,0,1,1.441,3.993.666.666,0,0,1-.665.642h3.363a.666.666,0,0,0,.665-.642A5.983,5.983,0,0,0,371.812,396.536Z" transform="translate(-321.842 -355.839)" fill="#c9983d"/><path d="M148.639,264.481h-7.96a.666.666,0,0,0-.665.639,17.118,17.118,0,0,1-2.416,8.225,17.187,17.187,0,0,1-2.351-8.221.666.666,0,0,0-.665-.643h-7.956a.666.666,0,0,0-.666.666,32.986,32.986,0,0,0,2.062,12.376.666.666,0,0,0,.373.368,7.114,7.114,0,0,1,3.763,3.956.666.666,0,0,0,.614.453,4.565,4.565,0,0,1,1.693.457,3.148,3.148,0,0,1,1.765,2.847.666.666,0,0,0,.485.605,5.89,5.89,0,0,0,.84.181.665.665,0,0,0,.076,0,.69.69,0,0,0,.076,0,10.927,10.927,0,0,0,5.9-3.237,17.206,17.206,0,0,0,3.94-6.415,34.141,34.141,0,0,0,1.76-11.593A.666.666,0,0,0,148.639,264.481Z" transform="translate(-108.073 -241.064)" fill="#e0e0e2"/><path d="M255.032,264.482h-3.3a.666.666,0,0,1,.666.666,34.141,34.141,0,0,1-1.76,11.593,17.209,17.209,0,0,1-3.94,6.415,12.276,12.276,0,0,1-4.013,2.7.663.663,0,0,0,.421.358,5.881,5.881,0,0,0,.84.181.665.665,0,0,0,.076,0,.682.682,0,0,0,.076,0,10.927,10.927,0,0,0,5.9-3.237,17.206,17.206,0,0,0,3.94-6.415,34.14,34.14,0,0,0,1.76-11.593A.666.666,0,0,0,255.032,264.482Z" transform="translate(-214.466 -241.065)" fill="#c6c5ca"/><path d="M27.038,401.49a5.923,5.923,0,0,0-1.855-.58,9.047,9.047,0,0,0-1.416-2.234,7.489,7.489,0,0,0-5.82-2.651,6.266,6.266,0,0,0-5.389,2.542,6.677,6.677,0,0,0-.973,2.009,4.287,4.287,0,0,0-2.821,1.267,5.7,5.7,0,0,0-1.374,3.808.666.666,0,0,0,.665.642H28.828a.666.666,0,0,0,.665-.683A4.468,4.468,0,0,0,27.038,401.49Z" transform="translate(0 -360.96)" fill="#c9983d"/><path d="M118.764,401.49a5.923,5.923,0,0,0-1.855-.58,9.047,9.047,0,0,0-1.416-2.234,7.489,7.489,0,0,0-5.82-2.651,8.126,8.126,0,0,0-1.649.162,7.455,7.455,0,0,1,4.194,2.489,9.049,9.049,0,0,1,1.416,2.234,5.923,5.923,0,0,1,1.855.58,4.469,4.469,0,0,1,2.456,4.12.666.666,0,0,1-.665.683h3.275a.666.666,0,0,0,.665-.683A4.469,4.469,0,0,0,118.764,401.49Z" transform="translate(-91.726 -360.96)" fill="#ab732d"/><path d="M222.478,241.454h-6.125a.666.666,0,0,0-.666.666v1.387a18.31,18.31,0,0,0,3.117,10.407h0l.024.035a.666.666,0,0,0,.542.285h0a.666.666,0,0,0,.541-.278,18.236,18.236,0,0,0,3.228-10.564V242.12A.666.666,0,0,0,222.478,241.454Z" transform="translate(-189.857 -220.076)" fill="#c6c5ca"/><path d="M243.372,241.454h-3.337a.666.666,0,0,1,.666.666v1.272a18.767,18.767,0,0,1-2.089,8.716,16.042,16.042,0,0,0,1.087,1.806h0l.024.035a.666.666,0,0,0,.542.285h0a.666.666,0,0,0,.541-.278,18.236,18.236,0,0,0,3.228-10.564V242.12A.666.666,0,0,0,243.372,241.454Z" transform="translate(-210.751 -220.076)" fill="#b2b1b5"/></g></svg>
