<svg xmlns="http://www.w3.org/2000/svg" width="38.255" height="45.277" viewBox="0 0 38.255 45.277">
    <g transform="translate(-44.818)">
        <path d="M67.678,20.981a.26.26,0,0,0-.013-.029L56.867.141a.26.26,0,0,0-.462,0l-10.8,20.812a.235.235,0,0,0-.013.029,12.175,12.175,0,0,0,11.034,16.43h.016a12.175,12.175,0,0,0,11.034-16.43Z" fill="#3d9dc9" />
        <g transform="translate(44.818 0.309)">
            <path d="M57.468,38.28a13.517,13.517,0,0,1-4.055-9.591.273.273,0,0,1,0-.035l2.9-25.388L45.607,23.91a.236.236,0,0,0-.013.029,12.175,12.175,0,0,0,11.034,16.43h.016a12.147,12.147,0,0,0,2.861-.432A13.757,13.757,0,0,1,57.468,38.28Z" transform="translate(-44.818 -3.266)" fill="#2d77ab" />
            <path d="M352.774,180.96a.269.269,0,0,0-.013-.029l-5.324-10.262a.26.26,0,0,0-.462,0l-5.324,10.262a.236.236,0,0,0-.013.029,6.135,6.135,0,0,0,5.56,8.279h.016a6.135,6.135,0,0,0,5.56-8.279Z" transform="translate(-314.907 -154.704)" fill="#2d7bab" />
        </g>
        <path d="M389.613,180.96a.268.268,0,0,0-.013-.029l-5.324-10.262a.261.261,0,0,0-.231-.141h0l-2.1,12.188a.254.254,0,0,0,0,.035,6.773,6.773,0,0,0,3.525,6.276c.183-.05.364-.107.543-.173A6.143,6.143,0,0,0,389.613,180.96Z" transform="translate(-306.929 -156.1)" fill="#3d91c9" />
        <path d="M275.937,385.366l-3.548-6.838a.26.26,0,0,0-.462,0l-3.548,6.838a.244.244,0,0,0-.013.029,4.175,4.175,0,0,0,3.784,5.634h.016a4.175,4.175,0,0,0,3.784-5.634A.256.256,0,0,0,275.937,385.366Z" transform="translate(-203.291 -345.752)" fill="#2d7fab" />
        <path d="M299.973,385.4a.248.248,0,0,0-.013-.029l-3.548-6.838a.261.261,0,0,0-.231-.141.258.258,0,0,0-.08.014l-1.456,8.569a.3.3,0,0,0,0,.035,4.716,4.716,0,0,0,1.89,4,4.175,4.175,0,0,0,3.442-5.61Z" transform="translate(-227.357 -345.752)" fill="#3d93c9" />
    </g>
</svg>
