<svg xmlns="http://www.w3.org/2000/svg" width="50.763" height="55.552" viewBox="0 0 50.763 55.552"><g transform="translate(-5.747)"><path d="M29,40.227H44.325c7.4,0,13.409-9,13.409-20.114S51.729,0,44.325,0H29Z" transform="translate(-1.224)" fill="#acacac"/><path d="M28.409,40.227c7.4,0,13.409-9,13.409-20.114S35.813,0,28.409,0C18.084,0,12.126,16.216,16.389,29.021l6.982,11.206Z" transform="translate(-0.633)" fill="gray"/><path d="M38.074,20.283a26.138,26.138,0,0,1-.872,6.7H20.92s-.335.105-.891.345C17.088,16.9,21.4,4,28.582,4,33.821,4,38.074,11.289,38.074,20.283Z" transform="translate(-0.806 -0.169)" fill="#4a4a4a"/><path d="M36.65,28c0,.057,0,.287-.067.345-1.236,4.157-4.253,9.233-8.553,9.233-4.051.661-4.693,9.971-4.789,14.08a5.21,5.21,0,0,1-5.23,5.076,5.287,5.287,0,0,1-5.306-5.21V49.072a2.873,2.873,0,0,1-2.873,2.873H8.873A2.873,2.873,0,0,1,6,49.072v-.958c0-9.339,5.584-16.283,13.467-19.759.556-.239.9-.345.9-.345Z" transform="translate(-0.253 -1.182)" fill="#ab732d"/><path d="M47.747,37.916H42.958a.958.958,0,1,1,0-1.916h4.789a.958.958,0,1,1,0,1.916Z" transform="translate(-1.773 -1.519)" fill="gray"/><g transform="translate(11.494 33.526)"><path d="M19.957,40.747A.958.958,0,0,1,19,39.789a5.086,5.086,0,0,1,2.442-4.684.957.957,0,0,1,.872,1.7,3.247,3.247,0,0,0-1.4,2.979A.958.958,0,0,1,19.957,40.747Z" transform="translate(-12.295 -35.003)" fill="#c9983d"/><path d="M19.958,46.831A.958.958,0,0,1,19,45.873V43.958a.958.958,0,1,1,1.916,0v1.916A.958.958,0,0,1,19.958,46.831Z" transform="translate(-12.295 -35.341)" fill="#c9983d"/><path d="M12.958,42.788A.958.958,0,0,1,12,41.83,4.483,4.483,0,0,1,14.442,38.1a.958.958,0,1,1,.862,1.7,2.634,2.634,0,0,0-1.389,2.021.958.958,0,0,1-.958.958Z" transform="translate(-12 -35.128)" fill="#c9983d"/></g></g></svg>
